<svg width="510" height="350" viewBox="0 0 510 350" xmlns="http://www.w3.org/2000/svg">
  <g fill="#ffffff" stroke="none" stroke-width="0">
    <path d="M 122 10 L 160 10 L 160 10 L 160 308 A 32 32 0 0 1 128 340 L 90 340 L 90 340 L 90 42 A 32 32 0 0 1 122 10 Z" />
    <path d="M 160 10 L 350 10 L 350 10 L 350 80 L 350 80 L 160 80 L 160 80 L 160 10 L 160 10 Z" />
    <path d="M 350 10 L 388 10 A 32 32 0 0 1 420 42 L 420 340 L 420 340 L 382 340 A 32 32 0 0 1 350 308 L 350 10 L 350 10 Z" />
    <path d="M 42 270 L 90 270 L 90 270 L 90 340 L 90 340 L 42 340 A 32 32 0 0 1 10 308 L 10 302 A 32 32 0 0 1 42 270 Z" />
    <path d="M 420 270 L 468 270 A 32 32 0 0 1 500 302 L 500 308 A 32 32 0 0 1 468 340 L 420 340 L 420 340 L 420 270 L 420 270 Z" />
    <path d="M 205 180 L 230 180 L 230 180 L 230 230 L 230 230 L 212 230 A 25 25 0 0 1 180 205 L 180 205 A 25 25 0 0 1 205 180 Z" />
    <path d="M 255 130 L 255 130 A 25 25 0 0 1 280 155 L 280 255 A 25 25 0 0 1 255 280 L 262 280 A 25 25 0 0 1 230 255 L 230 155 A 25 25 0 0 1 255 130 Z" />
    <path d="M 280 180 L 305 180 A 25 25 0 0 1 330 205 L 330 205 A 25 25 0 0 1 305 230 L 280 230 L 280 230 L 280 180 L 280 180 Z" />
    <path d="M 0 0 C 0 -23.872 5.76 -32 32 -32 H 0 Z" transform="translate(160, 112)" />
    <path d="M 0 0 C 0 23.872 -5.76 32 -32 32 H 0 Z" transform="translate(90, 238)" />
    <path d="M 0 0 C 0 -23.872 -5.76 -32 -32 -32 H 0 Z" transform="translate(350, 112)" />
    <path d="M 0 0 C 0 23.872 5.76 32 32 32 H 0 Z" transform="translate(420, 238)" />
    <path d="M 0 0 C 0 23.872 -5.76 32 -32 32 H 0 Z" transform="translate(230, 148)" />
    <path d="M 0 0 C 0 -23.872 -5.76 -32 -32 -32 H 0 Z" transform="translate(230, 262)" />
    <path d="M 0 0 C 0 23.872 5.76 32 32 32 H 0 Z" transform="translate(280, 148)" />
    <path d="M 0 0 C 0 -23.872 5.76 -32 32 -32 H 0 Z" transform="translate(280, 262)" />
  </g>
</svg>